<svg viewBox="0 0 2341 1796" fill="none" xmlns="http://www.w3.org/2000/svg"><path d="M2124.18 1617.55v-454.86c0-7.6-4.48-14.49-11.42-17.58l-837.42-372.203c-12.72-5.655-27.05 3.66-27.05 17.58v827.053c0 10.63 8.61 19.24 19.23 19.24h837.42c10.63 0 19.24-8.61 19.24-19.24v.01z" stroke="url(#paint0_linear_405_11882)" stroke-width="2" stroke-miterlimit="10"/><path d="M1463.98 545.822v454.858c0 7.61 4.48 14.49 11.42 17.58l837.42 372.2c12.72 5.65 27.06-3.66 27.06-17.58V545.822c0-10.627-8.61-19.237-19.24-19.237h-837.42c-10.63 0-19.24 8.61-19.24 19.237z" stroke="url(#paint1_linear_405_11882)" stroke-width="2" stroke-miterlimit="10"/><path d="M1500.33 1775.75v-454.86c0-7.6-4.47-14.48-11.42-17.57L651.49 931.113c-12.72-5.655-27.052 3.659-27.052 17.579v827.058c0 10.62 8.61 19.24 19.237 19.24H1481.1c10.62 0 19.23-8.62 19.23-19.24v0z" stroke="url(#paint2_linear_405_11882)" stroke-width="2" stroke-miterlimit="10"/><path d="M205.937 20.238v454.86a19.239 19.239 0 0011.423 17.579l837.42 372.195c12.72 5.655 27.05-3.659 27.05-17.579V20.237C1081.83 9.61 1073.22 1 1062.59 1H225.167C214.54 1 205.93 9.61 205.93 20.238h.007z" stroke="url(#paint3_linear_405_11882)" stroke-width="2" stroke-miterlimit="10"/><path d="M1 352.87v454.86a19.24 19.24 0 0011.422 17.58l837.421 372.2c12.72 5.65 27.052-3.66 27.052-17.58V352.87c0-10.627-8.61-19.237-19.238-19.237H20.237C9.61 333.633 1 342.243 1 352.87v0z" stroke="url(#paint4_linear_405_11882)" stroke-width="2" stroke-miterlimit="10"/><defs><linearGradient id="paint0_linear_405_11882" x1="1256.09" y1="1634.16" x2="1930.28" y2="959.972" gradientUnits="userSpaceOnUse"><stop stop-color="#1D189F"/><stop offset=".2" stop-color="#9222FF"/><stop offset=".4" stop-color="#FF0CBF"/><stop offset=".6" stop-color="#FF536D"/><stop offset=".8" stop-color="#FF7BAC"/><stop offset="1" stop-color="#26BCFF"/></linearGradient><linearGradient id="paint1_linear_405_11882" x1="2340.48" y1="959.365" x2="1463.38" y2="959.365" gradientUnits="userSpaceOnUse"><stop stop-color="#1D189F"/><stop offset=".2" stop-color="#9222FF"/><stop offset=".4" stop-color="#FF0CBF"/><stop offset=".6" stop-color="#FF536D"/><stop offset=".8" stop-color="#FF7BAC"/><stop offset="1" stop-color="#26BCFF"/></linearGradient><linearGradient id="paint2_linear_405_11882" x1="623.845" y1="1362.22" x2="1500.93" y2="1362.22" gradientUnits="userSpaceOnUse"><stop stop-color="#1D189F"/><stop offset=".2" stop-color="#9222FF"/><stop offset=".4" stop-color="#FF0CBF"/><stop offset=".6" stop-color="#FF536D"/><stop offset=".8" stop-color="#FF7BAC"/><stop offset="1" stop-color="#26BCFF"/></linearGradient><linearGradient id="paint3_linear_405_11882" x1="1082.42" y1="433.772" x2="205.337" y2="433.772" gradientUnits="userSpaceOnUse"><stop stop-color="#1D189F"/><stop offset=".2" stop-color="#9222FF"/><stop offset=".4" stop-color="#FF0CBF"/><stop offset=".6" stop-color="#FF536D"/><stop offset=".8" stop-color="#FF7BAC"/><stop offset="1" stop-color="#26BCFF"/></linearGradient><linearGradient id="paint4_linear_405_11882" x1="225.873" y1="211.233" x2="813.19" y2="1228.5" gradientUnits="userSpaceOnUse"><stop stop-color="#1D189F"/><stop offset=".2" stop-color="#9222FF"/><stop offset=".4" stop-color="#FF0CBF"/><stop offset=".6" stop-color="#FF536D"/><stop offset=".8" stop-color="#FF7BAC"/><stop offset="1" stop-color="#26BCFF"/></linearGradient></defs></svg>