<svg fill="none" xmlns="http://www.w3.org/2000/svg" viewBox="0 0 174 32"><path d="M12.974 0H.78a.3.3 0 00-.3.3v14.044a.911.911 0 00.535.83l18.122 8.038a.901.901 0 01.536.825v7.658a.3.3 0 00.305.305h12.196a.3.3 0 00.305-.305V17.681a.91.91 0 00-.535-.83L13.82 8.814a.905.905 0 01-.536-.83V.3a.305.305 0 00-.31-.3z" fill="#fff"/><path d="M19.678.3v6.43a.605.605 0 00.359.536l12.019 5.358a.3.3 0 00.423-.273V.301A.3.3 0 0032.173 0h-12.19a.3.3 0 00-.305.3zM13.28 31.695v-6.43a.61.61 0 00-.36-.536L.903 19.387a.305.305 0 00-.423.279v12.029a.3.3 0 00.3.305h12.195a.305.305 0 00.306-.305zm36.372-5.38V5.289h3.585v8.91h9.977V5.29h3.617v21.026h-3.617v-8.917h-9.977v8.917h-3.585zm18.685-15.373h3.638l4.148 12.099 4.147-12.115h3.644l-8 21.042H72.28l2.1-5.064-6.044-15.962zm16.879 21.026V10.942h3.349v2.223c1.125-1.72 2.813-2.577 5.095-2.577 4.175 0 6.511 3.553 6.511 8.038a9.299 9.299 0 01-1.747 5.803 5.663 5.663 0 01-4.764 2.25c-2.282 0-3.997-.857-5.095-2.604v7.877l-3.35.016zm7.464-8.038c2.486 0 4.115-1.896 4.115-5.304 0-3.408-1.608-5.332-4.115-5.332-2.508 0-4.115 1.93-4.115 5.358 0 3.43 1.655 5.294 4.115 5.294v-.016zm23.539-4.222h-11.381c.327 2.813 1.87 4.415 4.088 4.415a3.822 3.822 0 003.467-2.073h3.435c-1.072 2.957-3.553 4.645-6.902 4.645-2.341 0-4.174-.707-5.476-2.143-1.302-1.436-1.956-3.403-1.956-5.803 0-4.651 2.604-8.172 7.4-8.172 2.283 0 4.062.74 5.358 2.219 1.297 1.479 1.967 3.418 1.967 5.958v.954zm-11.376-2.074h8.038c-.268-2.93-1.779-4.5-3.939-4.5-2.266 0-3.836 1.687-4.104 4.5h.005zm22.628-6.751l.177.032v2.904a7.496 7.496 0 00-1.511-.15c-2.99 0-4.678 1.774-4.678 6.248v6.398h-3.343V10.942h3.343v2.813c.504-1.211 1.688-2.99 4.651-2.99.456.01.911.05 1.361.118zm1.206 10.93h3.408c0 1.608 1.152 2.455 3.494 2.455 2.341 0 3.402-.89 3.402-2.218a1.821 1.821 0 00-.589-1.394 1.726 1.726 0 00-.772-.353 12.646 12.646 0 00-2.111-.477 56.175 56.175 0 01-2.963-.563c-1.69-.443-2.785-1.184-3.285-2.224a4.361 4.361 0 01-.327-1.687c0-2.931 2.278-4.764 6.457-4.764 4.18 0 6.661 1.806 6.661 4.737h-3.285c0-1.393-1.158-2.31-3.317-2.31-2.047 0-3.172.831-3.172 2.1a1.606 1.606 0 00.863 1.48c.206.105.423.186.648.24.622.146.863.204 1.72.355l.707.117c.641.07 1.275.19 1.897.354.628.111 1.24.298 1.822.557a3.54 3.54 0 012.427 3.585c0 2.68-1.891 4.914-6.869 4.914-4.646-.022-6.811-1.945-6.811-4.903h-.005zm29.712-2.105h-11.365c.322 2.797 1.881 4.405 4.083 4.405a3.817 3.817 0 003.467-2.074h3.44c-1.072 2.958-3.553 4.645-6.902 4.645-2.336 0-4.174-.707-5.476-2.143-1.302-1.436-1.956-3.402-1.956-5.803 0-4.65 2.605-8.171 7.406-8.171 2.277 0 4.056.74 5.358 2.218 1.302 1.479 1.983 3.435 1.983 5.953l-.038.97zm-11.37-2.074h8.037c-.268-2.93-1.773-4.5-3.938-4.5-2.261 0-3.821 1.687-4.094 4.5h-.005zm26.341 4.651a17.048 17.048 0 00.354 3.612l.118.418h-3.279a11.56 11.56 0 01-.359-2.106c-1.094 1.661-2.88 2.49-5.359 2.486-3.402 0-5.299-1.607-5.299-4.378a4.037 4.037 0 011.184-3.027c1.152-1.072 2.679-1.42 4.287-1.688.294-.032.648-.09 1.071-.118a34.122 34.122 0 002.015-.3c1.243-.262 2.015-.74 2.015-2.01 0-.889-.772-2.19-3.215-2.19-2.015 0-3.215.857-3.462 2.394h-3.215c.177-2.191 1.608-4.822 6.666-4.822 4.469 0 6.516 2.143 6.516 5.594l-.038 6.135zm-10.395-.117c0 1.393 1.007 2.191 2.899 2.191 2.813 0 4.238-1.72 4.238-4.887v-1.157a4.014 4.014 0 01-1.57.862c-.267.118-1.125.268-1.393.354l-.771.15c-.386.06-.649.086-.74.118-1.414.295-2.658.766-2.658 2.369h-.005z" fill="#fff"/></svg>